<svg width="22" height="22" viewBox="0 0 22 22" fill="none" xmlns="http://www.w3.org/2000/svg">
<path d="M11.0008 2.50073C13.1269 4.82833 14.3351 7.84896 14.4008 11.0007C14.3351 14.1525 13.1269 17.1731 11.0008 19.5007M11.0008 2.50073C8.87471 4.82833 7.66645 7.84896 7.60079 11.0007C7.66645 14.1525 8.87471 17.1731 11.0008 19.5007M11.0008 2.50073C6.30637 2.50073 2.50079 6.30631 2.50079 11.0007C2.50079 15.6952 6.30637 19.5007 11.0008 19.5007M11.0008 2.50073C15.6952 2.50073 19.5008 6.30631 19.5008 11.0007C19.5008 15.6952 15.6952 19.5007 11.0008 19.5007M2.92581 8.45073H19.0758M2.92579 13.5507H19.0758" stroke="white" stroke-width="1.7" stroke-linecap="round" stroke-linejoin="round"/>
</svg>
