<svg width="41" height="40" viewBox="0 0 41 40" fill="none" xmlns="http://www.w3.org/2000/svg">
<path d="M20.5007 5.83325C24.0441 9.71258 26.0579 14.747 26.1673 19.9999C26.0579 25.2529 24.0441 30.2873 20.5007 34.1666M20.5007 5.83325C16.9572 9.71258 14.9434 14.747 14.834 19.9999C14.9434 25.2529 16.9572 30.2873 20.5007 34.1666M20.5007 5.83325C12.6766 5.83325 6.33398 12.1759 6.33398 19.9999C6.33398 27.824 12.6766 34.1666 20.5007 34.1666M20.5007 5.83325C28.3247 5.83325 34.6673 12.1759 34.6673 19.9999C34.6673 27.824 28.3247 34.1666 20.5007 34.1666M7.04235 15.7499H33.959M7.04232 24.2499H33.959" stroke="#4AB3FF" stroke-width="2.83333" stroke-linecap="round" stroke-linejoin="round"/>
</svg>
