<svg width="25" height="25" viewBox="0 0 25 25" fill="none" xmlns="http://www.w3.org/2000/svg">
<g clip-path="url(#clip0_100_16580)">
<path d="M23.0164 0.215332H2.56484C1.58516 0.215332 0.792969 0.98877 0.792969 1.94502V22.481C0.792969 23.4372 1.58516 24.2153 2.56484 24.2153H23.0164C23.9961 24.2153 24.793 23.4372 24.793 22.4856V1.94502C24.793 0.98877 23.9961 0.215332 23.0164 0.215332ZM7.91328 20.6669H4.35078V9.21064H7.91328V20.6669ZM6.13203 7.64971C4.98828 7.64971 4.06484 6.72627 4.06484 5.58721C4.06484 4.44814 4.98828 3.52471 6.13203 3.52471C7.27109 3.52471 8.19453 4.44814 8.19453 5.58721C8.19453 6.72158 7.27109 7.64971 6.13203 7.64971ZM21.2445 20.6669H17.6867V15.0981C17.6867 13.7716 17.6633 12.0606 15.8352 12.0606C13.9836 12.0606 13.7023 13.5091 13.7023 15.0044V20.6669H10.1492V9.21064H13.5617V10.7763H13.6086C14.082 9.87627 15.2445 8.92471 16.9742 8.92471C20.5789 8.92471 21.2445 11.2966 21.2445 14.381V20.6669Z" fill="white"/>
</g>
<defs>
<clipPath id="clip0_100_16580">
<rect width="24" height="24" fill="white" transform="translate(0.792969 0.215332)"/>
</clipPath>
</defs>
</svg>
