<svg width="177" height="24" viewBox="0 0 177 24" fill="none" xmlns="http://www.w3.org/2000/svg">
<path d="M0 23.5189V1.27344H5.11647L15.127 14.9385C15.021 14.0063 14.9257 13.1377 14.8409 12.3326C14.7774 11.5064 14.735 10.6271 14.7138 9.69495C14.6926 8.76275 14.682 7.68226 14.682 6.45346V1.27344H20.2434V23.5189H15.0634L5.18003 10.1399C5.28596 11.072 5.36011 11.8559 5.40248 12.4915C5.46604 13.1271 5.50841 13.7415 5.5296 14.3347C5.55079 14.9279 5.56138 15.6165 5.56138 16.4004V23.5189H0Z" fill="#973EDF"/>
<path d="M35.9295 23.8379C34.2558 23.8379 32.7092 23.5519 31.2897 22.9799C29.8703 22.4079 28.6415 21.6028 27.6033 20.5647C26.5652 19.5265 25.7601 18.3083 25.1881 16.91C24.6161 15.5117 24.3301 13.9757 24.3301 12.302C24.3301 10.6283 24.6161 9.09232 25.1881 7.69404C25.7601 6.27457 26.5652 5.04577 27.6033 4.00764C28.6415 2.96952 29.8703 2.16444 31.2897 1.59241C32.7092 1.02039 34.2558 0.734375 35.9295 0.734375C37.6244 0.734375 39.1816 1.02039 40.6011 1.59241C42.0206 2.16444 43.2494 2.96952 44.2875 4.00764C45.3256 5.04577 46.1307 6.27457 46.7027 7.69404C47.2747 9.09232 47.5608 10.6283 47.5608 12.302C47.5608 13.9546 47.2747 15.4906 46.7027 16.91C46.1307 18.3083 45.3256 19.5265 44.2875 20.5647C43.2494 21.6028 42.0206 22.4079 40.6011 22.9799C39.1816 23.5519 37.6244 23.8379 35.9295 23.8379ZM35.9295 18.499C37.0524 18.499 38.0481 18.2342 38.9168 17.7045C39.7854 17.1537 40.474 16.4122 40.9824 15.48C41.4909 14.5478 41.7451 13.4885 41.7451 12.302C41.7451 11.0944 41.4909 10.0245 40.9824 9.09232C40.474 8.16014 39.7854 7.42921 38.9168 6.89956C38.0481 6.3699 37.0524 6.10508 35.9295 6.10508C34.8067 6.10508 33.8109 6.3699 32.9423 6.89956C32.0736 7.42921 31.3851 8.16014 30.8766 9.09232C30.3893 10.0245 30.1457 11.0944 30.1457 12.302C30.1457 13.4885 30.3893 14.5478 30.8766 15.48C31.3851 16.4122 32.0736 17.1537 32.9423 17.7045C33.8109 18.2342 34.8067 18.499 35.9295 18.499Z" fill="#973EDF"/>
<path d="M55.3967 23.5189L48.8184 1.27344H54.634L57.7801 12.6186C57.9284 13.1483 58.0555 13.678 58.1615 14.2076C58.2674 14.7373 58.3627 15.2351 58.4475 15.7012C58.5322 15.1928 58.6276 14.6949 58.7335 14.2076C58.8606 13.6991 59.0195 13.1589 59.2102 12.5869L62.3881 4.00646H66.9008L70.0469 12.5869C70.2376 13.1377 70.3965 13.6568 70.5236 14.144C70.6719 14.6101 70.7991 15.0656 70.905 15.5106C70.9474 15.108 71.0109 14.6737 71.0957 14.2076C71.1804 13.7415 71.3075 13.2013 71.477 12.5869L74.6232 1.27344H80.2799L73.638 23.5189H69.2525L64.422 11.7606L60.0047 23.5189H55.3967Z" fill="#973EDF"/>
<path d="M83.2598 23.519V1.27344H85.548L99.4995 19.7372C99.4573 19.1016 99.4142 18.3495 99.372 17.4809C99.3298 16.5911 99.2984 15.6695 99.2769 14.7161C99.2553 13.7627 99.2347 12.8305 99.2131 11.9195C99.2131 10.9873 99.2131 10.1505 99.2131 9.40894V1.27344H101.724V23.519H99.4043L85.4214 5.21407C85.5058 6.48524 85.5696 7.69286 85.6118 8.83691C85.6755 9.98097 85.7177 10.9661 85.7392 11.7924C85.7599 12.5975 85.7707 13.1377 85.7707 13.4131V23.519H83.2598Z" fill="white"/>
<path d="M114.661 23.8348C113.03 23.8348 111.568 23.4641 110.276 22.7225C109.005 21.9598 107.998 20.9323 107.257 19.64C106.515 18.3264 106.145 16.8328 106.145 15.1591C106.145 13.5065 106.515 12.0341 107.257 10.7417C107.998 9.4282 109.005 8.40067 110.276 7.65915C111.568 6.91763 113.03 6.54688 114.661 6.54688C116.292 6.54688 117.744 6.91763 119.015 7.65915C120.307 8.40067 121.313 9.4282 122.034 10.7417C122.776 12.0341 123.146 13.5065 123.146 15.1591C123.146 16.8328 122.776 18.3264 122.034 19.64C121.313 20.9323 120.307 21.9598 119.015 22.7225C117.744 23.4641 116.292 23.8348 114.661 23.8348ZM114.661 21.5467C115.826 21.5467 116.854 21.2713 117.744 20.7204C118.654 20.1696 119.364 19.4175 119.873 18.4641C120.381 17.4896 120.636 16.3879 120.636 15.1591C120.636 13.9303 120.381 12.8498 119.873 11.9176C119.364 10.9642 118.654 10.2121 117.744 9.66125C116.854 9.11041 115.826 8.83499 114.661 8.83499C113.496 8.83499 112.457 9.11041 111.547 9.66125C110.636 10.2121 109.926 10.9642 109.418 11.9176C108.909 12.871 108.655 13.9515 108.655 15.1591C108.655 16.3879 108.909 17.4896 109.418 18.4641C109.926 19.4175 110.636 20.1696 111.547 20.7204C112.457 21.2713 113.496 21.5467 114.661 21.5467Z" fill="white"/>
<path d="M133.392 23.8345C131.866 23.8345 130.5 23.4637 129.292 22.7222C128.105 21.9807 127.163 20.9638 126.464 19.6714C125.786 18.3578 125.447 16.8642 125.447 15.1905C125.447 13.538 125.797 12.0655 126.496 10.7732C127.195 9.45964 128.138 8.43211 129.324 7.69059C130.51 6.92789 131.845 6.54654 133.328 6.54654C134.6 6.54654 135.765 6.84315 136.824 7.43636C137.904 8.00839 138.742 8.71812 139.334 9.56557V0H141.75V23.5167H139.366L139.303 20.7201C138.773 21.5887 137.968 22.3303 136.888 22.9447C135.807 23.5379 134.642 23.8345 133.392 23.8345ZM133.71 21.6099C134.811 21.6099 135.796 21.3345 136.665 20.7837C137.533 20.2328 138.212 19.4807 138.699 18.5273C139.208 17.5528 139.462 16.4405 139.462 15.1905C139.462 13.9405 139.208 12.8388 138.699 11.8855C138.212 10.9109 137.533 10.1482 136.665 9.59735C135.796 9.04651 134.811 8.77109 133.71 8.77109C132.587 8.77109 131.591 9.04651 130.722 9.59735C129.853 10.1482 129.176 10.9109 128.688 11.8855C128.201 12.8388 127.957 13.9405 127.957 15.1905C127.957 16.4193 128.201 17.521 128.688 18.4956C129.176 19.4701 129.853 20.2328 130.722 20.7837C131.591 21.3345 132.587 21.6099 133.71 21.6099Z" fill="white"/>
<path d="M153.735 23.8348C152.062 23.8348 150.579 23.4747 149.286 22.7543C148.015 22.034 147.02 21.0276 146.3 19.7353C145.579 18.4429 145.219 16.9599 145.219 15.2862C145.219 13.5913 145.569 12.0871 146.267 10.7735C146.967 9.45998 147.942 8.43245 149.191 7.69093C150.442 6.92823 151.872 6.54688 153.481 6.54688C154.964 6.54688 156.268 6.89645 157.39 7.59559C158.535 8.27355 159.414 9.21634 160.028 10.424C160.642 11.6104 160.929 12.9875 160.886 14.5553L160.854 15.6675H147.697C147.803 17.4684 148.418 18.8984 149.541 19.9577C150.663 21.0171 152.157 21.5467 154.022 21.5467C154.827 21.5467 155.611 21.4196 156.374 21.1654C157.158 20.8899 158.016 20.3603 158.948 19.5764L160.187 21.3243C159.446 22.0446 158.502 22.6484 157.359 23.1357C156.215 23.6018 155.007 23.8348 153.735 23.8348ZM153.45 8.83499C151.925 8.83499 150.663 9.24812 149.668 10.0744C148.672 10.8795 148.047 12.0659 147.793 13.6337H158.439V13.443C158.396 12.6803 158.175 11.9494 157.772 11.2502C157.369 10.5299 156.798 9.94726 156.056 9.50235C155.335 9.05744 154.467 8.83499 153.45 8.83499Z" fill="white"/>
<path d="M169.767 23.8348C168.326 23.8348 167.045 23.5806 165.922 23.0721C164.82 22.5425 163.93 21.8327 163.252 20.9429L164.968 19.4493C166.176 20.9535 167.839 21.7056 169.958 21.7056C170.974 21.7056 171.801 21.4832 172.436 21.0382C173.093 20.5721 173.421 19.9366 173.421 19.1315C173.421 18.4535 173.125 17.8921 172.532 17.4472C172.256 17.2353 171.865 17.034 171.356 16.8434C170.848 16.6527 170.233 16.4514 169.513 16.2396C168.326 15.9218 167.341 15.5828 166.557 15.2226C165.774 14.8625 165.159 14.4493 164.714 13.9832C164.079 13.2629 163.761 12.3625 163.761 11.282C163.761 10.371 164.004 9.56591 164.492 8.86677C165 8.14643 165.688 7.585 166.557 7.18246C167.447 6.75874 168.443 6.54688 169.544 6.54688C170.731 6.54688 171.875 6.80111 172.977 7.30958C174.099 7.79686 175.01 8.43245 175.71 9.21634L174.216 10.8371C173.58 10.1803 172.871 9.65065 172.086 9.24812C171.324 8.84558 170.519 8.64431 169.672 8.64431C168.634 8.64431 167.796 8.87736 167.161 9.34345C166.547 9.80955 166.24 10.424 166.24 11.1867C166.24 11.8011 166.483 12.3095 166.97 12.7121C167.267 12.9451 167.68 13.1676 168.21 13.3794C168.76 13.5701 169.438 13.7714 170.243 13.9832C171.155 14.2375 171.938 14.5023 172.595 14.7777C173.252 15.032 173.792 15.3392 174.216 15.6993C175.275 16.5044 175.805 17.6061 175.805 19.0044C175.805 19.9366 175.54 20.7734 175.01 21.5149C174.481 22.2353 173.761 22.8073 172.849 23.231C171.938 23.6336 170.911 23.8348 169.767 23.8348Z" fill="white"/>
</svg>
