<svg width="75" height="75" viewBox="0 0 75 75" fill="none" xmlns="http://www.w3.org/2000/svg">
<path d="M3 34.1707L22.9201 68.2102L53.8881 41.9233L29.7897 6.78955L3 34.1707Z" fill="#BAC2C5"/>
<path d="M72.0004 42.0078L53.8885 41.9233L29.79 6.78955L51.8648 11.5932L72.0004 42.0078Z" fill="#CDD2D5"/>
<path d="M22.9199 68.2103L45.9664 64.5854L71.9998 42.0078L53.888 41.9233L22.9199 68.2103Z" fill="#C8CED1"/>
<path d="M53.888 41.9233L53.4951 42.2529H71.7168L71.9999 42.0078L53.888 41.9233Z" fill="#A7B1B5"/>
<path d="M53.4947 42.2528L29.4766 7.11064L29.7892 6.78955L53.8877 41.9233L53.4947 42.2528Z" fill="#CEDADD"/>
<path opacity="0.2" d="M44.0485 27.58C41.3193 27.3011 38.5224 27.1533 35.6749 27.1533C23.5116 27.1533 12.2566 29.8191 3.09717 34.3397L3 34.1707L29.7897 6.78955L44.0485 27.5757V27.58Z" fill="url(#paint0_linear_2171_8541)"/>
<path d="M29.7897 6.78955L3 34.1707L22.9243 68.2102L53.8881 41.9191L29.7897 6.78955ZM3.92101 34.2848L29.6925 7.94715L52.8995 41.7923L23.1144 67.0779L3.92101 34.2848Z" fill="url(#paint1_linear_2171_8541)"/>
<defs>
<linearGradient id="paint0_linear_2171_8541" x1="3" y1="20.5625" x2="44.0485" y2="20.5625" gradientUnits="userSpaceOnUse">
<stop stop-color="white"/>
<stop offset="1" stop-color="white" stop-opacity="0"/>
</linearGradient>
<linearGradient id="paint1_linear_2171_8541" x1="3" y1="37.4999" x2="53.8881" y2="37.4999" gradientUnits="userSpaceOnUse">
<stop stop-color="white" stop-opacity="0.2"/>
<stop offset="0.03" stop-color="#F8F9FA" stop-opacity="0.31"/>
<stop offset="0.1" stop-color="#E9EEEF" stop-opacity="0.56"/>
<stop offset="0.16" stop-color="#DDE5E7" stop-opacity="0.75"/>
<stop offset="0.22" stop-color="#D4DFE1" stop-opacity="0.89"/>
<stop offset="0.27" stop-color="#CFDBDE" stop-opacity="0.97"/>
<stop offset="0.31" stop-color="#CEDADD"/>
<stop offset="0.41" stop-color="#D4DEE1"/>
<stop offset="0.55" stop-color="#E5EBED"/>
<stop offset="0.69" stop-color="white"/>
<stop offset="0.72" stop-color="#F8FAFA" stop-opacity="0.91"/>
<stop offset="0.77" stop-color="#EBF0F1" stop-opacity="0.72"/>
<stop offset="0.82" stop-color="#E1E8EA" stop-opacity="0.57"/>
<stop offset="0.87" stop-color="#D8E2E4" stop-opacity="0.45"/>
<stop offset="0.91" stop-color="#D2DDE0" stop-opacity="0.37"/>
<stop offset="0.96" stop-color="#CFDADD" stop-opacity="0.32"/>
<stop offset="0.99" stop-color="#CEDADD" stop-opacity="0.3"/>
</linearGradient>
</defs>
</svg>
