<svg width="98" height="74" viewBox="0 0 98 74" fill="none" xmlns="http://www.w3.org/2000/svg">
<path d="M23.3564 25.369L38.1456 50.6407L61.137 31.1247L43.2458 5.04053L23.3564 25.369Z" fill="#BAC2C5"/>
<path d="M74.5841 31.1874L61.1374 31.1247L43.2461 5.04053L59.6349 8.60686L74.5841 31.1874Z" fill="#CDD2D5"/>
<path d="M38.1455 50.6406L55.2558 47.9493L74.5836 31.1872L61.1369 31.1245L38.1455 50.6406Z" fill="#C8CED1"/>
<path d="M61.1364 31.1245L60.8447 31.3692H74.373L74.5831 31.1872L61.1364 31.1245Z" fill="#A7B1B5"/>
<path d="M60.8444 31.3693L43.0127 5.27891L43.2448 5.04053L61.1361 31.1247L60.8444 31.3693Z" fill="#CEDADD"/>
<path opacity="0.2" d="M53.8318 20.4758C51.8056 20.2688 49.7291 20.159 47.6151 20.159C38.5847 20.159 30.2288 22.1382 23.4286 25.4944L23.3564 25.369L43.2458 5.04053L53.8318 20.4727V20.4758Z" fill="url(#paint0_linear_2171_8530)"/>
<path d="M43.2458 5.04053L23.3564 25.369L38.1487 50.6407L61.137 31.1215L43.2458 5.04053ZM24.0402 25.4537L43.1736 5.89996L60.4031 31.0274L38.2899 49.8001L24.0402 25.4537Z" fill="url(#paint1_linear_2171_8530)"/>
<path d="M4.18988 70.397V56.3584H9.81079C10.8436 56.3584 11.705 56.5115 12.395 56.8177C13.0851 57.1239 13.6038 57.5489 13.9511 58.0927C14.2984 58.6319 14.472 59.2534 14.472 59.9572C14.472 60.5055 14.3624 60.9877 14.143 61.4035C13.9236 61.8148 13.622 62.153 13.2382 62.418C12.8589 62.6785 12.4247 62.8636 11.9358 62.9733V63.1104C12.4704 63.1332 12.9708 63.284 13.437 63.5628C13.9077 63.8415 14.2892 64.2323 14.5817 64.7349C14.8742 65.233 15.0204 65.8271 15.0204 66.5172C15.0204 67.2621 14.8353 67.927 14.4652 68.5119C14.0996 69.0923 13.5581 69.5516 12.8406 69.8897C12.1231 70.2279 11.2389 70.397 10.1878 70.397H4.18988ZM7.15799 67.9704H9.57772C10.4049 67.9704 11.0081 67.8127 11.3874 67.4974C11.7667 67.1775 11.9563 66.7525 11.9563 66.2224C11.9563 65.834 11.8626 65.4912 11.6753 65.1942C11.4879 64.8972 11.2206 64.6641 10.8733 64.495C10.5305 64.3259 10.1215 64.2414 9.64627 64.2414H7.15799V67.9704ZM7.15799 62.2329H9.35837C9.76509 62.2329 10.1261 62.1621 10.4414 62.0204C10.7613 61.8742 11.0127 61.6686 11.1954 61.4035C11.3828 61.1385 11.4765 60.8209 11.4765 60.4507C11.4765 59.9434 11.296 59.5344 10.935 59.2237C10.5785 58.9129 10.0713 58.7576 9.41321 58.7576H7.15799V62.2329ZM19.431 56.3584V70.397H16.5108V56.3584H19.431ZM26.1413 70.6026C25.0765 70.6026 24.1557 70.3764 23.3788 69.924C22.6065 69.467 22.0102 68.8318 21.5897 68.0184C21.1693 67.2004 20.9591 66.2521 20.9591 65.1736C20.9591 64.086 21.1693 63.1355 21.5897 62.3221C22.0102 61.5041 22.6065 60.8688 23.3788 60.4164C24.1557 59.9594 25.0765 59.731 26.1413 59.731C27.2061 59.731 28.1246 59.9594 28.8969 60.4164C29.6738 60.8688 30.2725 61.5041 30.6929 62.3221C31.1133 63.1355 31.3235 64.086 31.3235 65.1736C31.3235 66.2521 31.1133 67.2004 30.6929 68.0184C30.2725 68.8318 29.6738 69.467 28.8969 69.924C28.1246 70.3764 27.2061 70.6026 26.1413 70.6026ZM26.155 68.3405C26.6394 68.3405 27.0439 68.2034 27.3683 67.9293C27.6928 67.6505 27.9373 67.2712 28.1018 66.7914C28.2709 66.3115 28.3554 65.7654 28.3554 65.1531C28.3554 64.5407 28.2709 63.9946 28.1018 63.5148C27.9373 63.035 27.6928 62.6557 27.3683 62.3769C27.0439 62.0981 26.6394 61.9588 26.155 61.9588C25.6661 61.9588 25.2548 62.0981 24.9212 62.3769C24.5921 62.6557 24.3431 63.035 24.174 63.5148C24.0095 63.9946 23.9272 64.5407 23.9272 65.1531C23.9272 65.7654 24.0095 66.3115 24.174 66.7914C24.3431 67.2712 24.5921 67.6505 24.9212 67.9293C25.2548 68.2034 25.6661 68.3405 26.155 68.3405ZM37.5934 70.6026C36.515 70.6026 35.5873 70.3741 34.8104 69.9171C34.0381 69.4556 33.444 68.8158 33.0282 67.9978C32.6169 67.1798 32.4112 66.2384 32.4112 65.1736C32.4112 64.0952 32.6192 63.1492 33.035 62.3358C33.4554 61.5178 34.0518 60.8803 34.8241 60.4233C35.5964 59.9617 36.515 59.731 37.5797 59.731C38.4983 59.731 39.3026 59.8978 39.9926 60.2313C40.6827 60.5649 41.2288 61.0334 41.6309 61.6366C42.033 62.2398 42.2547 62.9481 42.2958 63.7616H39.5402C39.4625 63.236 39.2569 62.8133 38.9233 62.4934C38.5942 62.169 38.1624 62.0067 37.6277 62.0067C37.1753 62.0067 36.78 62.1301 36.4418 62.3769C36.1082 62.6191 35.8478 62.9733 35.6604 63.4394C35.473 63.9055 35.3793 64.4699 35.3793 65.1325C35.3793 65.8043 35.4707 66.3755 35.6535 66.8462C35.8409 67.3169 36.1037 67.6756 36.4418 67.9224C36.78 68.1692 37.1753 68.2926 37.6277 68.2926C37.9613 68.2926 38.2606 68.224 38.5257 68.0869C38.7953 67.9498 39.0169 67.751 39.1906 67.4906C39.3688 67.2255 39.4854 66.9079 39.5402 66.5377H42.2958C42.2501 67.342 42.0308 68.0504 41.6378 68.6627C41.2493 69.2705 40.7124 69.7458 40.0269 70.0885C39.3414 70.4312 38.5303 70.6026 37.5934 70.6026ZM46.4253 67.3672L46.4322 63.8644H46.8572L50.2297 59.868H53.5817L49.0507 65.1599H48.3584L46.4253 67.3672ZM43.7794 70.397V56.3584H46.6995V70.397H43.7794ZM50.36 70.397L47.2616 65.8111L49.2084 63.7478L53.7805 70.397H50.36ZM59.6597 70.397H54.6831V56.3584H59.7008C61.1129 56.3584 62.3285 56.6395 63.3476 57.2015C64.3666 57.7591 65.1504 58.5611 65.6987 59.6076C66.2517 60.6541 66.5282 61.9062 66.5282 63.364C66.5282 64.8263 66.2517 66.083 65.6987 67.1341C65.1504 68.1852 64.3621 68.9917 63.3339 69.5538C62.3102 70.1159 61.0855 70.397 59.6597 70.397ZM57.6513 67.8539H59.5363C60.4137 67.8539 61.1518 67.6985 61.7504 67.3877C62.3536 67.0724 62.806 66.5857 63.1076 65.9277C63.4138 65.265 63.5669 64.4105 63.5669 63.364C63.5669 62.3266 63.4138 61.4789 63.1076 60.8209C62.806 60.1628 62.3559 59.6784 61.7573 59.3676C61.1586 59.0569 60.4206 58.9015 59.5432 58.9015H57.6513V67.8539ZM69.9688 70.397H66.7882L71.6345 56.3584H75.4595L80.2989 70.397H77.1183L73.6018 59.5664H73.4921L69.9688 70.397ZM69.77 64.8789H77.2828V67.1958H69.77V64.8789ZM90.2516 60.8963C90.1556 60.5627 90.0208 60.2679 89.8471 60.012C89.6735 59.7515 89.461 59.5322 89.2096 59.3539C88.9629 59.1711 88.6795 59.0318 88.3597 58.9358C88.0443 58.8398 87.6947 58.7918 87.3109 58.7918C86.5934 58.7918 85.9628 58.9701 85.419 59.3265C84.8797 59.683 84.4593 60.2016 84.1577 60.8826C83.8561 61.5589 83.7053 62.386 83.7053 63.364C83.7053 64.3419 83.8538 65.1736 84.1508 65.8591C84.4479 66.5446 84.8683 67.0678 85.4121 67.4289C85.9559 67.7853 86.598 67.9635 87.3383 67.9635C88.0101 67.9635 88.5836 67.8447 89.0588 67.6071C89.5387 67.3649 89.9043 67.0244 90.1556 66.5857C90.4115 66.147 90.5395 65.6283 90.5395 65.0297L91.1427 65.1188H87.5234V62.8841H93.3979V64.6527C93.3979 65.8865 93.1374 66.9467 92.6165 67.8333C92.0955 68.7153 91.378 69.3962 90.4641 69.876C89.5501 70.3513 88.5036 70.5889 87.3246 70.5889C86.0085 70.5889 84.8523 70.2987 83.8561 69.7184C82.8598 69.1334 82.083 68.304 81.5255 67.2301C80.9725 66.1516 80.696 64.872 80.696 63.3914C80.696 62.2535 80.8605 61.239 81.1896 60.3479C81.5232 59.4522 81.9893 58.6936 82.5879 58.0721C83.1866 57.4506 83.8835 56.9776 84.6786 56.6532C85.4738 56.3287 86.3352 56.1665 87.2629 56.1665C88.058 56.1665 88.7984 56.283 89.4838 56.5161C90.1693 56.7446 90.7771 57.069 91.3072 57.4894C91.8419 57.9099 92.2783 58.4103 92.6165 58.9906C92.9546 59.5664 93.1717 60.2016 93.2677 60.8963H90.2516Z" fill="white"/>
<defs>
<linearGradient id="paint0_linear_2171_8530" x1="23.3564" y1="15.2659" x2="53.8318" y2="15.2659" gradientUnits="userSpaceOnUse">
<stop stop-color="white"/>
<stop offset="1" stop-color="white" stop-opacity="0"/>
</linearGradient>
<linearGradient id="paint1_linear_2171_8530" x1="23.3564" y1="27.8406" x2="61.137" y2="27.8406" gradientUnits="userSpaceOnUse">
<stop stop-color="white" stop-opacity="0.2"/>
<stop offset="0.03" stop-color="#F8F9FA" stop-opacity="0.31"/>
<stop offset="0.1" stop-color="#E9EEEF" stop-opacity="0.56"/>
<stop offset="0.16" stop-color="#DDE5E7" stop-opacity="0.75"/>
<stop offset="0.22" stop-color="#D4DFE1" stop-opacity="0.89"/>
<stop offset="0.27" stop-color="#CFDBDE" stop-opacity="0.97"/>
<stop offset="0.31" stop-color="#CEDADD"/>
<stop offset="0.41" stop-color="#D4DEE1"/>
<stop offset="0.55" stop-color="#E5EBED"/>
<stop offset="0.69" stop-color="white"/>
<stop offset="0.72" stop-color="#F8FAFA" stop-opacity="0.91"/>
<stop offset="0.77" stop-color="#EBF0F1" stop-opacity="0.72"/>
<stop offset="0.82" stop-color="#E1E8EA" stop-opacity="0.57"/>
<stop offset="0.87" stop-color="#D8E2E4" stop-opacity="0.45"/>
<stop offset="0.91" stop-color="#D2DDE0" stop-opacity="0.37"/>
<stop offset="0.96" stop-color="#CFDADD" stop-opacity="0.32"/>
<stop offset="0.99" stop-color="#CEDADD" stop-opacity="0.3"/>
</linearGradient>
</defs>
</svg>
