<svg width="224" height="57" viewBox="0 0 224 57" fill="none" xmlns="http://www.w3.org/2000/svg">
<path d="M3.40332 26.5125L15.2959 46.8346L33.7843 31.1409L19.3972 10.1655L3.40332 26.5125Z" fill="#BAC2C5"/>
<path d="M44.5967 31.1913L33.7836 31.1409L19.3965 10.1655L32.5754 13.0334L44.5967 31.1913Z" fill="#CDD2D5"/>
<path d="M15.2959 46.8343L29.055 44.6702L44.5973 31.1911L33.7843 31.1406L15.2959 46.8343Z" fill="#C8CED1"/>
<path d="M33.7844 31.1406L33.5498 31.3374H44.4284L44.5974 31.1911L33.7844 31.1406Z" fill="#A7B1B5"/>
<path d="M33.5492 31.3376L19.21 10.3572L19.3966 10.1655L33.7837 31.1409L33.5492 31.3376Z" fill="#CEDADD"/>
<path opacity="0.2" d="M27.9099 22.5777C26.2805 22.4112 24.6107 22.323 22.9107 22.323C15.649 22.323 8.92966 23.9145 3.46133 26.6134L3.40332 26.5125L19.3972 10.1655L27.9099 22.5752V22.5777Z" fill="url(#paint0_linear_2171_7785)"/>
<path d="M19.3972 10.1655L3.40332 26.5125L15.2984 46.8346L33.7843 31.1384L19.3972 10.1655ZM3.95318 26.5806L19.3391 10.8566L33.1941 31.0627L15.4119 46.1586L3.95318 26.5806Z" fill="url(#paint1_linear_2171_7785)"/>
<path d="M51.2394 41.5V15.3182H61.7224C63.6485 15.3182 65.2551 15.6037 66.542 16.1747C67.8289 16.7457 68.7963 17.5383 69.444 18.5526C70.0917 19.5582 70.4156 20.7173 70.4156 22.0298C70.4156 23.0526 70.211 23.9517 69.8019 24.7273C69.3928 25.4943 68.8303 26.125 68.1144 26.6193C67.4071 27.1051 66.5974 27.4503 65.6855 27.6548V27.9105C66.6826 27.9531 67.6159 28.2344 68.4852 28.7543C69.363 29.2741 70.0747 30.0028 70.6201 30.9403C71.1656 31.8693 71.4383 32.9773 71.4383 34.2642C71.4383 35.6534 71.0931 36.8935 70.4028 37.9844C69.721 39.0668 68.711 39.9233 67.373 40.554C66.0349 41.1847 64.3857 41.5 62.4255 41.5H51.2394ZM56.7749 36.9744H61.2877C62.8303 36.9744 63.9553 36.6804 64.6627 36.0923C65.3701 35.4957 65.7238 34.7031 65.7238 33.7145C65.7238 32.9901 65.5491 32.3509 65.1997 31.7969C64.8502 31.2429 64.3517 30.8082 63.7039 30.4929C63.0647 30.1776 62.3019 30.0199 61.4156 30.0199H56.7749V36.9744ZM56.7749 26.2741H60.8786C61.6372 26.2741 62.3105 26.142 62.8985 25.8778C63.4951 25.6051 63.9639 25.2216 64.3048 24.7273C64.6542 24.233 64.8289 23.6406 64.8289 22.9503C64.8289 22.0043 64.4923 21.2415 63.819 20.6619C63.1542 20.0824 62.2082 19.7926 60.9809 19.7926H56.7749V26.2741ZM79.664 15.3182V41.5H74.218V15.3182H79.664ZM92.1787 41.8835C90.1929 41.8835 88.4756 41.4616 87.0267 40.6179C85.5864 39.7656 84.4742 38.581 83.6901 37.0639C82.906 35.5384 82.5139 33.7699 82.5139 31.7585C82.5139 29.7301 82.906 27.9574 83.6901 26.4403C84.4742 24.9148 85.5864 23.7301 87.0267 22.8864C88.4756 22.0341 90.1929 21.608 92.1787 21.608C94.1645 21.608 95.8776 22.0341 97.3179 22.8864C98.7668 23.7301 99.8833 24.9148 100.667 26.4403C101.451 27.9574 101.843 29.7301 101.843 31.7585C101.843 33.7699 101.451 35.5384 100.667 37.0639C99.8833 38.581 98.7668 39.7656 97.3179 40.6179C95.8776 41.4616 94.1645 41.8835 92.1787 41.8835ZM92.2043 37.6648C93.1077 37.6648 93.8619 37.4091 94.4671 36.8977C95.0722 36.3778 95.5281 35.6705 95.835 34.7756C96.1503 33.8807 96.308 32.8622 96.308 31.7202C96.308 30.5781 96.1503 29.5597 95.835 28.6648C95.5281 27.7699 95.0722 27.0625 94.4671 26.5426C93.8619 26.0227 93.1077 25.7628 92.2043 25.7628C91.2923 25.7628 90.5253 26.0227 89.9031 26.5426C89.2895 27.0625 88.825 27.7699 88.5097 28.6648C88.2029 29.5597 88.0494 30.5781 88.0494 31.7202C88.0494 32.8622 88.2029 33.8807 88.5097 34.7756C88.825 35.6705 89.2895 36.3778 89.9031 36.8977C90.5253 37.4091 91.2923 37.6648 92.2043 37.6648ZM113.537 41.8835C111.525 41.8835 109.795 41.4574 108.346 40.6051C106.906 39.7443 105.798 38.5511 105.023 37.0256C104.256 35.5 103.872 33.7443 103.872 31.7585C103.872 29.7472 104.26 27.983 105.035 26.4659C105.82 24.9403 106.932 23.7514 108.372 22.8991C109.812 22.0383 111.525 21.608 113.511 21.608C115.224 21.608 116.724 21.919 118.011 22.5412C119.298 23.1633 120.317 24.0369 121.067 25.1619C121.817 26.2869 122.23 27.608 122.307 29.125H117.168C117.023 28.1449 116.639 27.3565 116.017 26.7599C115.403 26.1548 114.598 25.8523 113.601 25.8523C112.757 25.8523 112.02 26.0824 111.389 26.5426C110.767 26.9943 110.281 27.6548 109.932 28.5241C109.582 29.3935 109.408 30.446 109.408 31.6818C109.408 32.9347 109.578 34 109.919 34.8778C110.268 35.7557 110.758 36.4247 111.389 36.8849C112.02 37.3452 112.757 37.5753 113.601 37.5753C114.223 37.5753 114.781 37.4474 115.275 37.1918C115.778 36.9361 116.192 36.5653 116.516 36.0795C116.848 35.5852 117.065 34.9929 117.168 34.3026H122.307C122.221 35.8026 121.812 37.1236 121.079 38.2656C120.355 39.3991 119.354 40.2855 118.075 40.9247C116.797 41.5639 115.284 41.8835 113.537 41.8835ZM130.008 35.8494L130.021 29.3168H130.814L137.103 21.8636H143.355L134.905 31.733H133.613L130.008 35.8494ZM125.074 41.5V15.3182H130.52V41.5H125.074ZM137.346 41.5L131.568 32.9474L135.199 29.0994L143.726 41.5H137.346ZM154.69 41.5H145.409V15.3182H154.767C157.4 15.3182 159.668 15.8423 161.568 16.8906C163.469 17.9304 164.93 19.4261 165.953 21.3778C166.984 23.3295 167.5 25.6648 167.5 28.3835C167.5 31.1108 166.984 33.4545 165.953 35.4148C164.93 37.375 163.46 38.8793 161.543 39.9276C159.633 40.9759 157.349 41.5 154.69 41.5ZM150.944 36.7571H154.46C156.096 36.7571 157.473 36.4673 158.589 35.8878C159.714 35.2997 160.558 34.392 161.121 33.1648C161.692 31.929 161.977 30.3352 161.977 28.3835C161.977 26.4489 161.692 24.8679 161.121 23.6406C160.558 22.4133 159.719 21.5099 158.602 20.9304C157.486 20.3508 156.109 20.0611 154.473 20.0611H150.944V36.7571ZM173.917 41.5H167.985L177.023 15.3182H184.157L193.182 41.5H187.25L180.692 21.3011H180.488L173.917 41.5ZM173.546 31.2088H187.557V35.5298H173.546V31.2088ZM211.744 23.7812C211.565 23.1591 211.313 22.6094 210.99 22.1321C210.666 21.6463 210.269 21.2372 209.801 20.9048C209.34 20.5639 208.812 20.304 208.215 20.125C207.627 19.946 206.975 19.8565 206.259 19.8565C204.921 19.8565 203.745 20.1889 202.731 20.8537C201.725 21.5185 200.941 22.4858 200.379 23.7557C199.816 25.017 199.535 26.5597 199.535 28.3835C199.535 30.2074 199.812 31.7585 200.366 33.0369C200.92 34.3153 201.704 35.2912 202.718 35.9645C203.732 36.6293 204.93 36.9616 206.311 36.9616C207.563 36.9616 208.633 36.7401 209.519 36.2969C210.414 35.8452 211.096 35.2102 211.565 34.392C212.042 33.5739 212.281 32.6065 212.281 31.4901L213.406 31.6562H206.656V27.4886H217.612V30.7869C217.612 33.0881 217.126 35.0653 216.154 36.7187C215.183 38.3636 213.845 39.6335 212.14 40.5284C210.436 41.4148 208.484 41.858 206.285 41.858C203.83 41.858 201.674 41.3168 199.816 40.2344C197.958 39.1435 196.509 37.5966 195.47 35.5937C194.438 33.5824 193.923 31.196 193.923 28.4347C193.923 26.3125 194.23 24.4205 194.843 22.7585C195.465 21.0881 196.335 19.6733 197.451 18.5142C198.568 17.3551 199.867 16.473 201.35 15.8679C202.833 15.2628 204.44 14.9602 206.17 14.9602C207.653 14.9602 209.034 15.1776 210.312 15.6122C211.59 16.0383 212.724 16.6435 213.713 17.4276C214.71 18.2116 215.524 19.1449 216.154 20.2273C216.785 21.3011 217.19 22.4858 217.369 23.7812H211.744Z" fill="white"/>
<defs>
<linearGradient id="paint0_linear_2171_7785" x1="3.40332" y1="18.3882" x2="27.9099" y2="18.3882" gradientUnits="userSpaceOnUse">
<stop stop-color="white"/>
<stop offset="1" stop-color="white" stop-opacity="0"/>
</linearGradient>
<linearGradient id="paint1_linear_2171_7785" x1="3.40332" y1="28.5001" x2="33.7843" y2="28.5001" gradientUnits="userSpaceOnUse">
<stop stop-color="white" stop-opacity="0.2"/>
<stop offset="0.03" stop-color="#F8F9FA" stop-opacity="0.31"/>
<stop offset="0.1" stop-color="#E9EEEF" stop-opacity="0.56"/>
<stop offset="0.16" stop-color="#DDE5E7" stop-opacity="0.75"/>
<stop offset="0.22" stop-color="#D4DFE1" stop-opacity="0.89"/>
<stop offset="0.27" stop-color="#CFDBDE" stop-opacity="0.97"/>
<stop offset="0.31" stop-color="#CEDADD"/>
<stop offset="0.41" stop-color="#D4DEE1"/>
<stop offset="0.55" stop-color="#E5EBED"/>
<stop offset="0.69" stop-color="white"/>
<stop offset="0.72" stop-color="#F8FAFA" stop-opacity="0.91"/>
<stop offset="0.77" stop-color="#EBF0F1" stop-opacity="0.72"/>
<stop offset="0.82" stop-color="#E1E8EA" stop-opacity="0.57"/>
<stop offset="0.87" stop-color="#D8E2E4" stop-opacity="0.45"/>
<stop offset="0.91" stop-color="#D2DDE0" stop-opacity="0.37"/>
<stop offset="0.96" stop-color="#CFDADD" stop-opacity="0.32"/>
<stop offset="0.99" stop-color="#CEDADD" stop-opacity="0.3"/>
</linearGradient>
</defs>
</svg>
